<?xml version="1.0" standalone="no"?>
<!DOCTYPE svg PUBLIC "-//W3C//DTD SVG 20010904//EN"
 "http://www.w3.org/TR/2001/REC-SVG-20010904/DTD/svg10.dtd">
<svg version="1.0" xmlns="http://www.w3.org/2000/svg"
 width="1157.000000pt" height="1157.000000pt" viewBox="0 0 1157.000000 1157.000000"
 preserveAspectRatio="xMidYMid meet">

<g transform="translate(0.000000,1157.000000) scale(0.100000,-0.100000)"
fill="#b76e68" stroke="none">
<path d="M5605 11233 c-1234 -40 -2412 -489 -3365 -1283 -144 -120 -505 -472
-526 -512 -28 -53 8 -108 70 -108 25 0 61 31 230 198 431 425 840 719 1367
983 612 307 1239 482 1964 551 195 18 693 15 905 -6 680 -67 1278 -234 1865
-521 990 -486 1782 -1244 2325 -2228 97 -176 114 -194 166 -181 31 8 54 40 54
78 0 56 -247 478 -428 731 -774 1084 -1897 1842 -3182 2149 -453 108 -993 164
-1445 149z"/>
<path d="M995 9372 c-304 -90 -512 -336 -565 -665 -20 -120 -8 -320 24 -432
61 -208 175 -386 326 -509 39 -33 56 -52 48 -57 -10 -7 -92 -19 -208 -33 -19
-2 15 -3 77 -2 61 1 110 -1 107 -3 -2 -2 -61 -19 -131 -38 -143 -37 -90 -36
79 2 57 13 104 22 106 20 5 -4 -75 -47 -160 -85 -42 -19 -75 -36 -73 -38 3 -3
115 41 295 115 44 19 -124 -101 -207 -147 -24 -13 -41 -26 -38 -28 5 -5 156
76 233 125 30 19 59 32 64 31 12 -4 -108 -116 -191 -177 -91 -68 -81 -68 20 0
31 21 91 65 133 99 42 33 76 59 76 57 0 -11 -64 -86 -143 -166 -73 -75 -81
-85 -37 -50 30 24 90 78 134 119 58 55 75 67 63 45 -24 -47 -105 -154 -171
-225 -33 -36 -15 -20 40 35 55 55 119 123 143 150 l43 50 -27 -50 c-29 -52
-89 -137 -134 -191 -14 -16 0 -4 31 28 32 32 83 92 114 133 31 42 59 74 61 71
7 -7 -55 -124 -109 -206 -35 -53 -40 -65 -18 -40 17 19 61 79 97 132 37 54 68
96 70 94 9 -9 -58 -159 -114 -251 l-24 -40 25 30 c14 16 55 78 91 139 36 60
65 104 65 97 0 -24 -61 -169 -99 -233 -22 -38 -38 -68 -35 -68 9 0 92 136 130
213 76 153 61 64 -17 -103 -60 -129 -30 -95 47 53 31 60 58 107 60 104 7 -7
-26 -106 -62 -185 -46 -104 -15 -61 48 65 29 57 53 101 55 99 7 -7 -21 -102
-53 -178 -18 -43 -30 -78 -28 -78 5 0 92 174 111 220 l13 35 -5 -55 c-5 -57
-40 -171 -69 -228 -9 -18 -14 -32 -11 -32 9 0 88 173 111 240 14 42 19 49 22
32 4 -29 -24 -174 -44 -221 -8 -19 -12 -36 -10 -38 7 -7 46 87 70 169 12 43
25 81 29 84 19 20 0 -159 -28 -251 -3 -11 3 -2 13 20 20 43 50 153 54 197 1
15 6 24 11 21 10 -6 3 -173 -8 -223 -3 -14 2 -7 10 15 9 22 22 76 29 120 l13
80 8 -60 c5 -36 4 -87 -3 -129 -6 -39 -9 -72 -7 -74 6 -7 35 137 35 177 0 22
4 42 9 46 13 8 24 -94 18 -162 l-6 -58 14 40 c7 22 14 60 15 85 1 25 5 56 9
70 7 24 7 24 14 -9 4 -18 7 -66 8 -105 1 -102 17 -46 19 69 2 104 12 93 35
-35 l13 -75 -1 92 c-1 50 1 89 5 87 14 -9 28 -80 29 -149 l1 -70 9 50 c5 28 6
76 3 108 -10 99 15 60 42 -63 l14 -65 -6 84 c-2 47 -10 91 -16 98 -8 10 -7 13
5 13 18 0 37 -44 54 -125 l13 -60 -5 76 c-2 42 -7 83 -11 93 -9 23 13 20 26
-5 7 -11 18 -51 25 -87 l13 -67 1 50 c0 28 -3 67 -8 88 -11 44 4 61 19 22 6
-15 15 -57 20 -94 l9 -66 -3 93 c-2 50 0 92 4 92 10 0 29 -75 34 -135 2 -27 3
-6 2 48 0 53 2 97 6 97 6 0 23 -70 32 -135 3 -16 3 9 1 58 -1 48 -1 87 1 87
10 0 27 -58 35 -115 7 -53 7 -50 5 33 -5 129 18 121 35 -13 7 -55 7 -53 5 28
-3 97 10 103 23 11 l9 -59 1 75 2 75 20 -53 c24 -60 36 -64 20 -5 -17 61 -12
72 9 19 11 -27 24 -54 30 -60 8 -8 8 -3 1 17 -6 16 -11 45 -10 65 l0 37 15
-40 c8 -22 20 -44 26 -50 8 -7 9 -4 3 10 -4 11 -9 38 -11 60 l-4 40 14 -30 c9
-16 15 -35 16 -42 0 -6 4 -14 8 -17 5 -3 7 17 4 44 -3 33 -1 50 7 50 6 0 11
-9 11 -20 0 -20 26 -80 35 -80 2 0 -1 13 -6 29 -6 16 -9 42 -7 58 4 26 5 25
16 -14 7 -23 17 -45 22 -48 5 -3 5 7 0 26 -17 59 -7 71 88 106 48 17 150 50
227 72 245 73 563 194 738 282 32 17 61 28 64 26 13 -14 -110 -385 -221 -664
-94 -240 -294 -703 -596 -1383 -252 -566 -671 -1494 -713 -1577 l-25 -49 53
-109 c56 -117 79 -145 136 -169 l37 -15 52 126 c104 253 341 762 858 1844 154
322 299 628 323 680 23 52 46 98 50 103 5 5 28 -9 54 -33 74 -68 100 -76 255
-75 159 1 294 23 436 69 317 104 602 332 724 580 182 371 73 791 -250 959
-184 96 -463 141 -715 116 -173 -17 -327 -59 -600 -165 -1004 -388 -1461 -499
-1880 -455 -265 27 -436 103 -612 273 -127 122 -209 261 -255 429 -31 113 -33
363 -4 448 41 120 93 196 165 242 59 37 132 38 225 3 80 -30 120 -31 163 -5
49 30 66 72 61 150 -3 36 -11 79 -19 95 -33 68 -116 89 -224 57z m3574 -1346
c163 -46 269 -147 308 -293 20 -76 13 -209 -16 -283 -85 -221 -395 -417 -785
-495 -66 -13 -170 -29 -230 -34 -116 -12 -266 -15 -266 -6 0 3 41 94 91 203
94 205 303 678 360 817 18 44 35 83 38 87 24 28 403 31 500 4z"/>
<path d="M7175 7838 c-501 -401 -475 -373 -420 -457 28 -41 28 -42 9 -60 -35
-33 -663 -530 -702 -556 -23 -15 -46 -23 -55 -19 -10 3 -17 2 -17 -4 0 -16
-33 -24 -42 -10 -5 8 -8 9 -8 2 0 -6 7 -17 15 -24 8 -7 15 -16 15 -21 0 -15
-30 -10 -36 6 -10 25 -25 17 -18 -10 6 -25 -8 -35 -21 -15 -13 21 -24 9 -14
-16 5 -15 8 -29 6 -31 -7 -6 -37 9 -37 18 0 5 -5 9 -10 9 -7 0 -7 -7 1 -21 8
-15 8 -24 0 -32 -8 -8 -11 -8 -11 0 0 6 -7 14 -16 17 -13 5 -15 1 -10 -19 7
-27 -3 -32 -22 -13 -16 16 -28 2 -13 -16 23 -27 1 -39 -25 -15 -18 17 -24 19
-24 8 0 -8 5 -20 12 -27 18 -18 1 -27 -27 -14 -23 11 -24 10 -13 -8 17 -26 2
-37 -21 -16 -16 14 -19 15 -24 2 -3 -8 -1 -17 6 -19 7 -2 8 -8 4 -13 -4 -4
-16 -3 -27 4 -11 6 -21 8 -25 2 -3 -5 -1 -11 5 -15 5 -3 10 -16 10 -27 0 -21
0 -21 -21 -2 -21 19 -21 19 -19 -6 4 -40 1 -45 -15 -24 -15 19 -20 10 -16 -24
2 -10 -4 -12 -18 -7 -18 5 -21 2 -21 -20 0 -21 -4 -25 -19 -20 -14 4 -19 1
-17 -12 0 -10 -5 -17 -11 -15 -23 4 -14 -24 21 -63 31 -37 34 -38 50 -23 9 10
23 15 31 12 10 -4 12 0 8 15 -6 23 6 28 25 9 9 -9 12 -6 12 15 0 29 9 34 28
15 9 -9 12 -7 12 10 0 23 14 30 25 12 3 -5 11 -10 18 -10 8 0 8 3 -1 12 -17
17 -15 38 3 38 8 0 15 -4 15 -10 0 -5 7 -10 15 -10 13 0 13 3 3 20 -12 19 -3
43 10 25 4 -6 15 -11 26 -12 13 -1 15 2 7 10 -6 6 -11 17 -11 25 0 10 4 10 22
-2 33 -24 40 -19 23 14 -17 33 -11 38 17 13 23 -21 33 -11 17 16 -17 27 -4 39
19 18 23 -21 36 -22 28 -1 -9 24 3 37 21 23 12 -11 13 -9 8 14 -7 27 7 38 20
17 13 -20 27 -10 21 15 -6 24 7 35 19 15 11 -18 26 -10 20 10 -6 18 -3 20 19
14 21 -5 24 -3 19 15 -6 24 6 27 26 9 11 -11 12 -8 7 16 -6 25 -5 28 14 23 17
-4 20 -2 15 14 -8 25 -9 25 398 351 l348 279 46 -41 c25 -22 52 -40 60 -40 19
0 913 718 913 733 0 42 -149 235 -206 269 l-29 16 -450 -360z"/>
<path d="M9745 7541 c-71 -62 -169 -173 -239 -271 -253 -351 -552 -1041 -647
-1492 -16 -74 -22 -141 -23 -238 l-1 -136 38 -76 c48 -97 118 -163 236 -221
82 -40 90 -42 176 -41 75 0 99 4 145 26 189 88 477 443 885 1091 65 103 120
185 122 183 6 -5 -170 -683 -248 -958 -194 -683 -354 -1030 -655 -1418 -101
-129 -291 -325 -406 -419 -241 -194 -532 -340 -827 -416 -418 -108 -902 -106
-1437 4 -238 49 -531 177 -769 336 -143 95 -234 174 -319 274 -119 142 -212
200 -329 209 -157 11 -257 -92 -257 -268 0 -141 49 -242 184 -375 265 -264
670 -434 1216 -511 175 -24 623 -30 830 -10 923 88 1746 461 2345 1061 171
171 261 284 390 490 228 365 384 727 625 1455 163 491 313 871 528 1337 51
113 67 155 58 162 -42 35 -293 111 -366 111 -35 -1 -36 -2 -127 -163 -50 -89
-169 -304 -263 -477 -95 -173 -211 -382 -258 -465 -316 -555 -567 -882 -793
-1032 -59 -39 -79 -47 -127 -50 -105 -7 -155 48 -153 170 2 121 85 441 194
747 129 362 436 953 642 1237 57 80 62 89 47 102 -53 42 -218 91 -311 91 -45
0 -55 -4 -106 -49z"/>
<path d="M944 7248 l-19 -23 23 19 c21 18 27 26 19 26 -2 0 -12 -10 -23 -22z"/>
<path d="M7050 6184 c-67 -74 -223 -310 -295 -447 -43 -82 -61 -107 -74 -103
-9 3 -81 8 -160 12 l-144 7 7 -47 c4 -26 14 -69 22 -96 l15 -49 98 -3 98 -3
-37 -95 c-138 -356 -245 -748 -257 -946 -5 -82 -3 -97 17 -139 61 -126 260
-255 418 -271 52 -6 63 -3 126 30 78 41 211 134 251 176 21 22 26 35 21 54
l-6 25 -61 -39 c-73 -47 -150 -77 -240 -94 -73 -14 -108 -7 -141 30 -101 116
21 656 264 1165 l61 129 41 0 c95 0 349 50 362 71 2 4 -2 24 -10 44 l-15 36
-148 -7 -147 -7 29 49 c48 83 154 244 232 352 71 98 74 104 57 117 -43 33
-260 104 -320 105 -7 0 -35 -25 -64 -56z"/>
<path d="M8250 6183 c-69 -77 -225 -312 -295 -446 -43 -82 -61 -107 -74 -103
-9 3 -81 8 -160 12 l-144 7 7 -47 c4 -26 14 -69 22 -96 l15 -49 98 -3 98 -3
-34 -90 c-143 -371 -247 -750 -260 -951 -5 -82 -4 -97 17 -139 61 -126 260
-255 418 -271 52 -6 63 -3 126 30 78 41 211 134 251 176 21 22 26 35 21 54
l-6 25 -61 -39 c-72 -47 -150 -77 -240 -94 -71 -14 -99 -9 -136 26 -110 103
14 657 264 1181 l56 117 41 0 c108 0 353 51 363 76 2 7 -3 26 -12 44 l-16 31
-146 -7 -147 -7 29 49 c52 89 156 247 232 352 71 98 74 104 57 117 -43 33
-260 104 -321 105 -6 0 -35 -26 -63 -57z"/>
<path d="M3830 6082 c-134 -163 -448 -1043 -569 -1597 l-20 -90 47 -43 c26
-24 64 -53 84 -63 l37 -19 16 53 c28 84 104 256 153 342 177 313 442 597 811
868 57 43 107 77 111 77 4 0 10 -64 13 -142 14 -318 78 -478 231 -579 l64 -42
5 -116 c7 -169 52 -278 160 -383 110 -107 316 -145 480 -89 126 44 497 242
497 265 0 6 -8 28 -18 48 l-17 37 -160 -91 c-215 -122 -288 -151 -387 -152
-91 -1 -120 15 -155 85 -28 54 -48 191 -39 263 l7 53 67 28 c243 102 506 257
635 375 160 147 253 346 287 613 l11 88 -32 37 c-92 107 -214 176 -310 175
-81 -1 -150 -19 -247 -64 -251 -116 -495 -381 -647 -701 -42 -90 -105 -265
-105 -294 0 -23 -14 -16 -56 29 -83 86 -121 174 -131 296 -7 98 12 199 78 411
28 91 52 171 53 179 3 30 -52 56 -129 59 -40 2 -80 0 -88 -4 -8 -5 -43 -47
-77 -94 -35 -47 -102 -130 -149 -185 -92 -108 -419 -435 -434 -435 -38 0 152
428 259 583 63 91 63 88 -30 148 -59 39 -184 91 -243 102 -28 6 -36 2 -63 -31z
m2095 -374 c-26 -187 -127 -364 -303 -529 -129 -120 -412 -303 -412 -266 0 30
65 207 106 290 100 202 245 374 401 474 62 40 155 77 206 82 5 1 6 -23 2 -51z"/>
<path d="M310 5810 c-11 -11 -22 -31 -26 -46 -10 -38 13 -442 36 -644 95 -835
399 -1668 865 -2375 622 -943 1521 -1676 2565 -2090 1715 -681 3671 -446 5177
621 1280 908 2115 2316 2287 3859 19 170 36 427 36 553 0 85 -2 95 -25 117
-13 14 -35 25 -49 25 -70 0 -86 -34 -86 -180 0 -61 -5 -177 -10 -258 -91
-1293 -635 -2487 -1550 -3402 -266 -265 -499 -456 -810 -665 -729 -486 -1521
-773 -2410 -870 -200 -22 -682 -31 -895 -16 -1684 118 -3185 997 -4107 2406
-540 825 -830 1744 -864 2741 -7 189 -8 199 -30 221 -29 29 -77 30 -104 3z"/>
<path d="M4060 2135 c0 -122 2 -145 15 -145 12 0 15 13 15 60 l0 60 58 0 c74
0 102 24 102 87 0 61 -32 83 -121 83 l-69 0 0 -145z m144 99 c18 -18 20 -47 6
-75 -9 -15 -22 -19 -65 -19 l-55 0 0 55 0 55 49 0 c32 0 55 -6 65 -16z"/>
<path d="M4320 2135 c0 -122 2 -145 15 -145 12 0 15 14 15 65 l0 65 35 0 c33
0 37 -3 67 -65 23 -45 38 -65 51 -65 10 0 17 3 15 8 -2 4 -16 31 -31 60 l-28
54 25 23 c35 32 36 92 3 123 -19 18 -35 22 -95 22 l-72 0 0 -145z m152 90 c8
-19 8 -31 0 -50 -10 -22 -18 -25 -67 -25 l-55 0 0 50 0 50 55 0 c49 0 57 -3
67 -25z"/>
<path d="M4590 2135 l0 -145 95 0 c78 0 95 3 95 15 0 12 -15 15 -75 15 l-75 0
0 50 0 50 65 0 c51 0 65 3 65 15 0 12 -14 15 -65 15 l-65 0 0 50 0 50 75 0
c60 0 75 3 75 15 0 12 -17 15 -95 15 l-95 0 0 -145z"/>
<path d="M4810 2265 c0 -11 12 -15 45 -15 l45 0 0 -130 c0 -109 2 -130 15
-130 13 0 15 21 15 130 l0 130 45 0 c33 0 45 4 45 15 0 12 -18 15 -105 15 -87
0 -105 -3 -105 -15z"/>
<path d="M5050 2265 c0 -11 11 -15 40 -15 l40 0 0 -130 c0 -123 1 -130 20
-130 19 0 20 7 20 130 l0 130 40 0 c29 0 40 4 40 15 0 12 -18 15 -100 15 -82
0 -100 -3 -100 -15z"/>
<path d="M5324 2195 c40 -74 46 -93 46 -145 0 -47 3 -60 15 -60 12 0 15 13 15
61 0 53 6 71 46 145 39 72 43 84 27 84 -13 0 -28 -20 -51 -65 -18 -37 -36 -64
-40 -61 -4 2 -21 32 -37 65 -20 43 -34 61 -48 61 -16 0 -13 -11 27 -85z"/>
<path d="M5725 2270 c-3 -5 -14 -33 -24 -62 -11 -29 -33 -90 -50 -135 -27 -75
-29 -83 -13 -83 11 0 23 13 31 35 l12 35 64 0 c63 0 63 0 70 -31 6 -28 29 -48
41 -36 3 3 -17 69 -46 146 -49 131 -67 160 -85 131z m44 -102 c12 -34 21 -66
21 -70 0 -4 -22 -8 -49 -8 l-50 0 20 58 c27 80 28 82 33 82 2 0 14 -28 25 -62z"/>
<path d="M5920 2135 c0 -138 1 -145 20 -145 18 0 20 7 20 65 l0 65 33 0 c30 0
35 -5 65 -65 24 -49 37 -65 53 -65 20 0 20 2 -10 55 -17 30 -31 59 -31 64 0 6
11 21 25 35 33 33 33 79 0 111 -21 22 -33 25 -100 25 l-75 0 0 -145z m148 103
c7 -7 12 -24 12 -38 0 -38 -18 -50 -72 -50 l-48 0 0 50 0 50 48 0 c26 0 53 -5
60 -12z"/>
<path d="M6160 2265 c0 -11 11 -15 40 -15 l40 0 0 -130 c0 -123 1 -130 20
-130 19 0 20 7 20 130 l0 130 40 0 c29 0 40 4 40 15 0 12 -18 15 -100 15 -82
0 -100 -3 -100 -15z"/>
<path d="M6520 2136 c0 -122 2 -146 15 -146 12 0 15 22 17 112 l3 113 73 -113
c40 -61 79 -112 87 -112 13 0 15 23 15 145 0 122 -2 145 -15 145 -12 0 -15
-19 -15 -112 0 -131 3 -131 -86 10 -88 140 -94 137 -94 -42z"/>
<path d="M6867 2213 c-86 -228 -85 -223 -63 -223 8 0 20 16 26 35 l12 35 63 0
63 0 12 -35 c8 -23 18 -35 30 -35 18 0 18 4 -6 68 -14 37 -38 101 -53 142 -36
99 -51 101 -84 13z m71 -60 l21 -63 -50 0 c-27 0 -49 4 -49 8 0 23 43 132 50
125 4 -4 17 -36 28 -70z"/>
<path d="M7090 2135 c0 -122 2 -145 15 -145 13 0 15 23 15 145 0 122 -2 145
-15 145 -13 0 -15 -23 -15 -145z"/>
<path d="M7200 2135 l0 -145 95 0 c78 0 95 3 95 15 0 12 -15 15 -75 15 l-75 0
0 130 c0 123 -1 130 -20 130 -19 0 -20 -7 -20 -145z"/>
<path d="M4610 1545 l0 -145 78 0 c69 0 81 3 100 23 29 31 28 72 -3 103 -19
19 -21 26 -11 30 23 9 38 57 27 87 -14 37 -40 47 -120 47 l-71 0 0 -145z m141
105 c12 -7 19 -21 19 -40 0 -36 -23 -50 -84 -50 l-46 0 0 50 0 50 46 0 c25 0
54 -5 65 -10z m19 -146 c13 -34 13 -40 -6 -58 -10 -11 -34 -16 -70 -16 l-54 0
0 50 0 50 60 0 c56 0 61 -2 70 -26z"/>
<path d="M4880 1545 l0 -145 95 0 c78 0 95 3 95 15 0 12 -15 15 -75 15 l-75 0
0 50 0 50 60 0 c47 0 60 3 60 15 0 12 -13 15 -60 15 l-60 0 0 50 0 50 75 0
c60 0 75 3 75 15 0 12 -17 15 -95 15 l-95 0 0 -145z"/>
<path d="M5215 1680 c-3 -5 -14 -33 -24 -62 -11 -29 -33 -90 -50 -135 -28 -77
-29 -83 -12 -83 13 0 22 10 26 30 7 30 7 30 75 30 67 0 68 -1 79 -30 5 -17 17
-30 27 -30 9 0 14 6 12 13 -81 222 -103 277 -114 277 -7 0 -16 -4 -19 -10z
m65 -182 c0 -4 -22 -8 -50 -8 -27 0 -50 2 -50 3 0 4 37 115 46 137 4 9 16 -12
30 -54 13 -39 24 -74 24 -78z"/>
<path d="M5390 1576 c0 -108 1 -116 25 -144 14 -17 38 -33 54 -37 36 -8 95 16
110 43 6 12 11 73 11 136 0 96 -3 116 -15 116 -12 0 -15 -19 -15 -108 0 -133
-10 -155 -73 -150 -57 4 -67 27 -67 156 0 84 -3 102 -15 102 -12 0 -15 -19
-15 -114z"/>
<path d="M5630 1675 c0 -11 12 -15 45 -15 l45 0 0 -130 c0 -109 2 -130 15
-130 13 0 15 21 15 130 l0 130 45 0 c33 0 45 4 45 15 0 12 -18 15 -105 15 -87
0 -105 -3 -105 -15z"/>
<path d="M5904 1606 c41 -73 46 -90 46 -145 0 -48 3 -61 15 -61 12 0 15 13 15
55 0 46 8 71 45 145 39 78 43 90 27 90 -14 0 -27 -18 -47 -65 -15 -36 -31 -65
-36 -65 -5 0 -24 29 -41 65 -22 45 -38 65 -51 65 -15 0 -11 -12 27 -84z"/>
<path d="M6258 1670 c-22 -16 -28 -30 -28 -58 0 -57 19 -74 97 -87 53 -8 70
-27 57 -63 -14 -39 -51 -44 -144 -21 -31 8 -13 -27 20 -38 75 -27 160 10 160
69 0 46 -17 66 -63 78 -87 22 -98 30 -95 64 4 40 41 55 98 39 26 -6 43 -7 46
-1 11 18 -15 31 -68 36 -43 3 -58 0 -80 -18z"/>
<path d="M6490 1545 c0 -122 2 -145 15 -145 12 0 15 13 15 55 l0 55 39 0 c50
0 99 18 111 40 6 10 10 37 10 59 0 59 -32 81 -121 81 l-69 0 0 -145z m144 99
c19 -18 21 -65 4 -82 -7 -7 -36 -12 -65 -12 l-53 0 0 55 0 55 49 0 c32 0 55
-6 65 -16z"/>
<path d="M6765 1558 c-26 -73 -50 -139 -53 -145 -2 -7 3 -13 12 -13 10 0 22
13 27 30 11 29 12 30 79 30 68 0 68 0 75 -30 4 -20 13 -30 26 -30 17 0 16 6
-12 83 -17 45 -41 109 -52 142 -34 94 -46 86 -102 -67z m90 12 c10 -30 20 -61
23 -67 3 -9 -10 -13 -47 -13 -28 0 -51 3 -51 7 0 21 45 142 51 136 3 -5 15
-33 24 -63z"/>
</g>
</svg>
